<?xml version="1.0" encoding="UTF-8" standalone="no"?>
<!-- This is a Stata generated SVG file (http://www.stata.com) -->

<svg version="1.1" width="5.50in" height="4.00in" viewBox="0 0 3960 2880" xmlns="http://www.w3.org/2000/svg">
	<rect x="0.00" y="0.00" width="3959.88" height="2880.00" style="fill:#FFFFFF;stroke:#FFFFFF;stroke-width:5.76"/>
	<rect x="390.80" y="275.35" width="3468.22" height="2213.83" style="fill:#FFFFFF;stroke:#FFFFFF;stroke-width:5.76"/>
	<line x1="2994.75" y1="2489.19" x2="2994.75" y2="275.35" style="stroke:#C10534;stroke-width:8.64"/>
	<rect x="487.20" y="2331.28" width="66.21" height="157.91" style="fill:#CAC27E;stroke:#D7D29E;stroke-width:8.64"/>
	<rect x="619.62" y="2424.34" width="66.08" height="64.85" style="fill:#CAC27E;stroke:#D7D29E;stroke-width:8.64"/>
	<rect x="751.90" y="2449.21" width="66.21" height="39.97" style="fill:#CAC27E;stroke:#D7D29E;stroke-width:8.64"/>
	<rect x="818.11" y="2460.23" width="66.08" height="28.96" style="fill:#CAC27E;stroke:#D7D29E;stroke-width:8.64"/>
	<rect x="884.19" y="2463.69" width="66.21" height="25.49" style="fill:#CAC27E;stroke:#D7D29E;stroke-width:8.64"/>
	<rect x="950.40" y="2451.19" width="66.21" height="37.99" style="fill:#CAC27E;stroke:#D7D29E;stroke-width:8.64"/>
	<rect x="1016.61" y="2459.36" width="66.21" height="29.82" style="fill:#CAC27E;stroke:#D7D29E;stroke-width:8.64"/>
	<rect x="1082.81" y="2450.82" width="66.08" height="38.36" style="fill:#CAC27E;stroke:#D7D29E;stroke-width:8.64"/>
	<rect x="1148.90" y="2452.93" width="66.21" height="36.26" style="fill:#CAC27E;stroke:#D7D29E;stroke-width:8.64"/>
	<rect x="1215.10" y="2450.70" width="66.21" height="38.49" style="fill:#CAC27E;stroke:#D7D29E;stroke-width:8.64"/>
	<rect x="1281.31" y="2448.10" width="66.08" height="41.09" style="fill:#CAC27E;stroke:#D7D29E;stroke-width:8.64"/>
	<rect x="1347.39" y="2450.95" width="66.21" height="38.24" style="fill:#CAC27E;stroke:#D7D29E;stroke-width:8.64"/>
	<rect x="1413.60" y="2441.05" width="66.21" height="48.14" style="fill:#CAC27E;stroke:#D7D29E;stroke-width:8.64"/>
	<rect x="1479.80" y="2438.07" width="66.08" height="51.11" style="fill:#CAC27E;stroke:#D7D29E;stroke-width:8.64"/>
	<rect x="1545.89" y="2434.73" width="66.21" height="54.45" style="fill:#CAC27E;stroke:#D7D29E;stroke-width:8.64"/>
	<rect x="1612.09" y="2436.34" width="66.21" height="52.84" style="fill:#CAC27E;stroke:#D7D29E;stroke-width:8.64"/>
	<rect x="1678.30" y="2420.01" width="66.21" height="69.18" style="fill:#CAC27E;stroke:#D7D29E;stroke-width:8.64"/>
	<rect x="1744.50" y="2421.12" width="66.08" height="68.06" style="fill:#CAC27E;stroke:#D7D29E;stroke-width:8.64"/>
	<rect x="1810.59" y="2412.33" width="66.21" height="76.85" style="fill:#CAC27E;stroke:#D7D29E;stroke-width:8.64"/>
	<rect x="1876.79" y="2408.37" width="66.21" height="80.81" style="fill:#CAC27E;stroke:#D7D29E;stroke-width:8.64"/>
	<rect x="1943.00" y="2412.46" width="66.08" height="76.73" style="fill:#CAC27E;stroke:#D7D29E;stroke-width:8.64"/>
	<rect x="2009.08" y="2400.21" width="66.21" height="88.98" style="fill:#CAC27E;stroke:#D7D29E;stroke-width:8.64"/>
	<rect x="2075.29" y="2394.64" width="66.21" height="94.55" style="fill:#CAC27E;stroke:#D7D29E;stroke-width:8.64"/>
	<rect x="2141.49" y="2360.61" width="66.21" height="128.58" style="fill:#CAC27E;stroke:#D7D29E;stroke-width:8.64"/>
	<rect x="2207.70" y="2349.47" width="66.08" height="139.72" style="fill:#CAC27E;stroke:#D7D29E;stroke-width:8.64"/>
	<rect x="2273.78" y="2311.72" width="66.21" height="177.46" style="fill:#CAC27E;stroke:#D7D29E;stroke-width:8.64"/>
	<rect x="2339.99" y="2234.38" width="66.21" height="254.81" style="fill:#CAC27E;stroke:#D7D29E;stroke-width:8.64"/>
	<rect x="2406.20" y="2309.74" width="66.08" height="179.44" style="fill:#CAC27E;stroke:#D7D29E;stroke-width:8.64"/>
	<rect x="2472.28" y="2111.98" width="66.21" height="377.20" style="fill:#CAC27E;stroke:#D7D29E;stroke-width:8.64"/>
	<rect x="2538.48" y="2191.80" width="66.21" height="297.38" style="fill:#CAC27E;stroke:#D7D29E;stroke-width:8.64"/>
	<rect x="2604.69" y="2192.79" width="66.08" height="296.39" style="fill:#CAC27E;stroke:#D7D29E;stroke-width:8.64"/>
	<rect x="2670.77" y="2109.76" width="66.21" height="379.43" style="fill:#CAC27E;stroke:#D7D29E;stroke-width:8.64"/>
	<rect x="2736.98" y="2057.90" width="66.21" height="431.28" style="fill:#CAC27E;stroke:#D7D29E;stroke-width:8.64"/>
	<rect x="2803.18" y="2188.09" width="66.21" height="301.09" style="fill:#CAC27E;stroke:#D7D29E;stroke-width:8.64"/>
	<rect x="2869.39" y="2098.25" width="66.08" height="390.94" style="fill:#CAC27E;stroke:#D7D29E;stroke-width:8.64"/>
	<rect x="2935.47" y="2220.27" width="66.21" height="268.92" style="fill:#CAC27E;stroke:#D7D29E;stroke-width:8.64"/>
	<rect x="3001.68" y="1781.07" width="66.21" height="708.12" style="fill:#CAC27E;stroke:#D7D29E;stroke-width:8.64"/>
	<rect x="3067.89" y="1960.76" width="66.08" height="528.43" style="fill:#CAC27E;stroke:#D7D29E;stroke-width:8.64"/>
	<rect x="3133.97" y="1791.09" width="66.21" height="698.10" style="fill:#CAC27E;stroke:#D7D29E;stroke-width:8.64"/>
	<rect x="3200.18" y="1397.92" width="66.21" height="1091.26" style="fill:#CAC27E;stroke:#D7D29E;stroke-width:8.64"/>
	<rect x="3266.38" y="2059.51" width="66.21" height="429.67" style="fill:#CAC27E;stroke:#D7D29E;stroke-width:8.64"/>
	<rect x="3332.59" y="2260.86" width="66.08" height="228.33" style="fill:#CAC27E;stroke:#D7D29E;stroke-width:8.64"/>
	<rect x="3398.67" y="416.56" width="66.21" height="2072.63" style="fill:#CAC27E;stroke:#D7D29E;stroke-width:8.64"/>
	<rect x="3464.88" y="1636.64" width="66.21" height="852.54" style="fill:#CAC27E;stroke:#D7D29E;stroke-width:8.64"/>
	<rect x="3531.08" y="1939.10" width="66.08" height="550.09" style="fill:#CAC27E;stroke:#D7D29E;stroke-width:8.64"/>
	<rect x="3729.58" y="1170.46" width="66.08" height="1318.72" style="fill:#CAC27E;stroke:#D7D29E;stroke-width:8.64"/>
	<line x1="390.80" y1="2489.19" x2="390.80" y2="275.35" style="stroke:#000000;stroke-width:5.76"/>
	<line x1="390.80" y1="2489.19" x2="350.83" y2="2489.19" style="stroke:#000000;stroke-width:5.76"/>
	<text x="300.72" y="2489.19" style="font-family:'Helvetica';font-size:99.99px;fill:#000000" transform="rotate(-90 300.72,2489.19)" text-anchor="middle">0</text>
	<line x1="390.80" y1="1951.60" x2="350.83" y2="1951.60" style="stroke:#000000;stroke-width:5.76"/>
	<text x="300.72" y="1951.60" style="font-family:'Helvetica';font-size:99.99px;fill:#000000" transform="rotate(-90 300.72,1951.60)" text-anchor="middle">2</text>
	<line x1="390.80" y1="1414.01" x2="350.83" y2="1414.01" style="stroke:#000000;stroke-width:5.76"/>
	<text x="300.72" y="1414.01" style="font-family:'Helvetica';font-size:99.99px;fill:#000000" transform="rotate(-90 300.72,1414.01)" text-anchor="middle">4</text>
	<line x1="390.80" y1="876.30" x2="350.83" y2="876.30" style="stroke:#000000;stroke-width:5.76"/>
	<text x="300.72" y="876.30" style="font-family:'Helvetica';font-size:99.99px;fill:#000000" transform="rotate(-90 300.72,876.30)" text-anchor="middle">6</text>
	<line x1="390.80" y1="338.71" x2="350.83" y2="338.71" style="stroke:#000000;stroke-width:5.76"/>
	<text x="300.72" y="338.71" style="font-family:'Helvetica';font-size:99.99px;fill:#000000" transform="rotate(-90 300.72,338.71)" text-anchor="middle">8</text>
	<text x="190.71" y="1382.33" style="font-family:'Helvetica';font-size:99.99px;fill:#000000" transform="rotate(-90 190.71,1382.33)" text-anchor="middle">Density</text>
	<line x1="390.80" y1="2489.19" x2="3859.02" y2="2489.19" style="stroke:#000000;stroke-width:5.76"/>
	<line x1="487.20" y1="2489.19" x2="487.20" y2="2529.16" style="stroke:#000000;stroke-width:5.76"/>
	<text x="487.20" y="2619.14" style="font-family:'Helvetica';font-size:99.99px;fill:#000000" text-anchor="middle">0</text>
	<line x1="1148.90" y1="2489.19" x2="1148.90" y2="2529.16" style="stroke:#000000;stroke-width:5.76"/>
	<text x="1148.90" y="2619.14" style="font-family:'Helvetica';font-size:99.99px;fill:#000000" text-anchor="middle">.2</text>
	<line x1="1810.59" y1="2489.19" x2="1810.59" y2="2529.16" style="stroke:#000000;stroke-width:5.76"/>
	<text x="1810.59" y="2619.14" style="font-family:'Helvetica';font-size:99.99px;fill:#000000" text-anchor="middle">.4</text>
	<line x1="2472.28" y1="2489.19" x2="2472.28" y2="2529.16" style="stroke:#000000;stroke-width:5.76"/>
	<text x="2472.28" y="2619.14" style="font-family:'Helvetica';font-size:99.99px;fill:#000000" text-anchor="middle">.6</text>
	<line x1="3133.97" y1="2489.19" x2="3133.97" y2="2529.16" style="stroke:#000000;stroke-width:5.76"/>
	<text x="3133.97" y="2619.14" style="font-family:'Helvetica';font-size:99.99px;fill:#000000" text-anchor="middle">.8</text>
	<line x1="3795.66" y1="2489.19" x2="3795.66" y2="2529.16" style="stroke:#000000;stroke-width:5.76"/>
	<text x="3795.66" y="2619.14" style="font-family:'Helvetica';font-size:99.99px;fill:#000000" text-anchor="middle">1</text>
	<text x="2124.91" y="2729.16" style="font-family:'Helvetica';font-size:99.99px;fill:#000000" text-anchor="middle">Commonality Score First Names</text>
	<text x="2124.91" y="215.98" style="font-family:'Helvetica';font-size:139.96px;fill:#1E2D53" text-anchor="middle">Density of Commonality Scores</text>
</svg>
